<svg width="30" height="30" viewBox="0 0 30 30" fill="none" xmlns="http://www.w3.org/2000/svg">
<g clip-path="url(#clip0_75_462)">
<path d="M15 2.8125C18.2323 2.8125 21.3323 4.09654 23.6179 6.38214C25.9035 8.66774 27.1875 11.7677 27.1875 15C27.1875 18.2323 25.9035 21.3323 23.6179 23.6179C21.3323 25.9035 18.2323 27.1875 15 27.1875C11.7677 27.1875 8.66774 25.9035 6.38214 23.6179C4.09654 21.3323 2.8125 18.2323 2.8125 15C2.8125 11.7677 4.09654 8.66774 6.38214 6.38214C8.66774 4.09654 11.7677 2.8125 15 2.8125ZM15 30C18.9782 30 22.7936 28.4196 25.6066 25.6066C28.4196 22.7936 30 18.9782 30 15C30 11.0218 28.4196 7.20644 25.6066 4.3934C22.7936 1.58035 18.9782 0 15 0C11.0218 0 7.20644 1.58035 4.3934 4.3934C1.58035 7.20644 0 11.0218 0 15C0 18.9782 1.58035 22.7936 4.3934 25.6066C7.20644 28.4196 11.0218 30 15 30ZM11.6836 18.3164C9.85547 16.4883 9.85547 13.5176 11.6836 11.6895C13.5117 9.86133 16.4824 9.86133 18.3105 11.6895C18.8613 12.2402 19.752 12.2402 20.2969 11.6895C20.8418 11.1387 20.8477 10.248 20.2969 9.70313C17.3672 6.77344 12.6211 6.77344 9.69141 9.70313C6.76172 12.6328 6.76172 17.3789 9.69141 20.3086C12.6211 23.2383 17.3672 23.2383 20.2969 20.3086C20.8477 19.7578 20.8477 18.8672 20.2969 18.3223C19.7461 17.7773 18.8555 17.7715 18.3105 18.3223C16.4824 20.1504 13.5117 20.1504 11.6836 18.3223V18.3164Z" fill="black"/>
</g>
<defs>
<clipPath id="clip0_75_462">
<rect width="30" height="30" fill="white"/>
</clipPath>
</defs>
</svg>
