<svg width="55" height="55" viewBox="0 0 55 55" fill="none" xmlns="http://www.w3.org/2000/svg">
<path d="M27.4999 4.58325C24.4905 4.58325 21.5105 5.17601 18.7301 6.32768C15.9497 7.47935 13.4234 9.16738 11.2954 11.2954C6.99768 15.5931 4.58325 21.422 4.58325 27.4999C4.58325 37.6291 11.1603 46.2228 20.2583 49.2707C21.4041 49.4541 21.7708 48.7437 21.7708 48.1249V44.252C15.4228 45.627 14.0708 41.1812 14.0708 41.1812C13.0166 38.5228 11.527 37.8124 11.527 37.8124C9.44159 36.3916 11.6874 36.4374 11.6874 36.4374C13.9791 36.5978 15.1937 38.7978 15.1937 38.7978C17.1874 42.2812 20.5562 41.2499 21.8624 40.6999C22.0687 39.2103 22.6645 38.202 23.3062 37.6291C18.2187 37.0562 12.8791 35.0853 12.8791 26.3541C12.8791 23.8103 13.7499 21.7708 15.2395 20.1437C15.0103 19.5708 14.2083 17.1874 15.4687 14.0937C15.4687 14.0937 17.3937 13.4749 21.7708 16.4312C23.5812 15.927 25.552 15.6749 27.4999 15.6749C29.4478 15.6749 31.4187 15.927 33.2291 16.4312C37.6062 13.4749 39.5312 14.0937 39.5312 14.0937C40.7916 17.1874 39.9895 19.5708 39.7603 20.1437C41.2499 21.7708 42.1207 23.8103 42.1207 26.3541C42.1207 35.1082 36.7583 37.0332 31.6478 37.6062C32.4728 38.3166 33.2291 39.7145 33.2291 41.8457V48.1249C33.2291 48.7437 33.5958 49.477 34.7645 49.2707C43.8624 46.1999 50.4166 37.6291 50.4166 27.4999C50.4166 24.4905 49.8238 21.5105 48.6722 18.7301C47.5205 15.9497 45.8325 13.4234 43.7044 11.2954C41.5764 9.16738 39.0501 7.47935 36.2697 6.32768C33.4894 5.17601 30.5094 4.58325 27.4999 4.58325Z" fill="white"/>
</svg>
