<svg width="158" height="146" viewBox="0 0 158 146" fill="none" xmlns="http://www.w3.org/2000/svg">
<path fill-rule="evenodd" clip-rule="evenodd" d="M54.5099 38.915C53.8779 38.915 53.2459 38.915 52.6139 38.915C52.617 37.0059 52.3538 35.1362 51.8239 33.305C51.4839 32.4539 50.9046 31.9038 50.0859 31.655C49.039 31.8731 48.1962 32.478 47.5579 33.47C46.504 34.226 45.6088 34.061 44.8719 32.975C44.3224 33.435 43.6904 33.6551 42.9759 33.635C42.1243 33.3858 41.387 32.9456 40.7639 32.315C39.9341 32.6084 39.1441 32.4985 38.3939 31.985C37.7249 31.3702 37.6194 30.6551 38.0779 29.84C37.4936 29.1744 36.8616 28.5695 36.1819 28.025C36.3276 27.1 36.7491 26.3298 37.4459 25.715C37.7619 25.715 38.0779 25.715 38.3939 25.715C38.3386 25.0151 38.4441 24.3551 38.7099 23.735C38.9102 23.2575 39.279 23.0377 39.8159 23.075C40.4912 23.2654 41.1759 23.3753 41.8699 23.405C42.5853 23.1677 43.3225 23.0578 44.0819 23.075C44.6096 23.1578 45.0836 23.3779 45.5039 23.735C45.9308 23.2337 46.4048 22.7938 46.9259 22.415C48.6598 23.8277 49.7658 25.6975 50.2439 28.025C50.9934 28.752 51.6782 29.5222 52.2979 30.335C52.5918 31.625 53.013 31.79 53.5619 30.83C53.6952 28.4061 52.958 26.371 51.3499 24.725C50.9287 24.5049 50.6127 24.1749 50.4019 23.735C49.5364 22.8331 48.7988 21.8431 48.1899 20.765C48.3577 20.0641 48.7792 19.5691 49.4539 19.28C48.7479 18.7395 48.3267 18.0243 48.1899 17.135C47.7601 15.4025 48.3921 14.5224 50.0859 14.495C49.9298 13.9916 49.719 13.5516 49.4539 13.175C49.1913 11.9391 49.1913 10.7291 49.4539 9.545C50.4161 9.5476 51.3641 9.65763 52.2979 9.875C52.3386 9.30868 52.4439 8.75867 52.6139 8.225C52.5908 7.72112 52.8016 7.39112 53.2459 7.235C53.6276 6.99274 54.0488 6.88276 54.5099 6.905C54.5099 17.5749 54.5099 28.2451 54.5099 38.915Z" fill="#74A70A"/>
<path fill-rule="evenodd" clip-rule="evenodd" d="M66.8341 23.075C66.8072 23.5684 67.0177 23.8984 67.4661 24.065C68.3945 23.7103 69.3425 23.6555 70.3101 23.9C70.4476 25.2949 71.1848 26.1199 72.5221 26.375C73.1354 26.8736 73.2934 27.5336 72.9961 28.355C71.8519 29.2038 71.2726 30.3588 71.2581 31.82C70.1208 32.1546 68.9624 32.4295 67.7821 32.645C67.4939 33.3852 66.9674 33.7152 66.2021 33.635C65.463 33.5792 64.7782 33.3591 64.1481 32.975C63.7126 33.5403 63.1859 33.9805 62.5681 34.295C61.5114 33.4106 60.4578 32.5305 59.4081 31.655C57.6375 32.7562 56.8475 34.4062 57.0381 36.605C56.4554 37.1921 56.2449 37.962 56.4061 38.915C55.7741 38.915 55.1421 38.915 54.5101 38.915C54.5101 28.2451 54.5101 17.5749 54.5101 6.90501C54.049 6.88277 53.6278 6.99276 53.2461 7.23501C53.4521 6.83073 53.8209 6.61075 54.3521 6.57501C55.9024 6.87386 56.8504 7.86386 57.1961 9.54501C58.2199 9.03803 59.1679 9.14802 60.0401 9.87501C60.2423 11.4812 60.0843 13.0212 59.5661 14.495C60.0856 14.4244 60.5596 14.5346 60.9881 14.825C61.3733 16.6064 60.8993 18.0914 59.5661 19.28C60.3258 19.743 60.8525 20.403 61.1461 21.26C59.6233 22.746 58.2013 24.3409 56.8801 26.045C56.1217 27.6069 55.8057 29.2569 55.9321 30.995C56.8716 30.0139 57.8196 29.0239 58.7761 28.025C59.1967 25.6715 60.3027 23.8013 62.0941 22.415C62.6702 22.742 63.1442 23.1819 63.5161 23.735C64.3146 23.208 65.1574 22.7681 66.0441 22.415C66.4552 22.4609 66.7184 22.6807 66.8341 23.075Z" fill="#498613"/>
<path opacity="0.384" fill-rule="evenodd" clip-rule="evenodd" d="M52.6141 8.22501C52.4441 8.75868 52.3389 9.30869 52.2981 9.87501C51.3643 9.65764 50.4163 9.54761 49.4541 9.54501C50.2109 9.11129 51.0009 9.11129 51.8241 9.54501C51.8873 8.94451 52.1508 8.50452 52.6141 8.22501Z" fill="#537544"/>
<path opacity="0.467" fill-rule="evenodd" clip-rule="evenodd" d="M49.454 9.54501C49.1914 10.7292 49.1914 11.9391 49.454 13.175C49.259 13.1385 49.101 13.0285 48.98 12.845C48.9272 12.295 48.8748 11.745 48.822 11.195C48.8397 10.4889 49.0505 9.9389 49.454 9.54501Z" fill="#527136"/>
<path opacity="0.259" fill-rule="evenodd" clip-rule="evenodd" d="M49.4541 13.175C49.7192 13.5516 49.93 13.9916 50.0861 14.495C48.3923 14.5224 47.7603 15.4025 48.1901 17.135C47.2383 15.6021 47.6598 14.722 49.4541 14.495C49.4541 14.0551 49.4541 13.615 49.4541 13.175Z" fill="#61853F"/>
<path opacity="0.576" fill-rule="evenodd" clip-rule="evenodd" d="M48.19 20.765C48.799 21.8431 49.5365 22.8331 50.402 23.735C49.4875 23.279 48.6975 22.619 48.032 21.755C47.7982 21.3428 47.851 21.0128 48.19 20.765Z" fill="#567522"/>
<path opacity="0.529" fill-rule="evenodd" clip-rule="evenodd" d="M44.0821 23.075C43.3228 23.0579 42.5855 23.1677 41.8701 23.405C42.5081 22.2734 43.2453 22.1636 44.0821 23.075Z" fill="#516F3D"/>
<path opacity="0.549" fill-rule="evenodd" clip-rule="evenodd" d="M66.8341 23.075C68.1101 23.1275 69.3741 23.2925 70.6261 23.57C71.0403 24.7158 71.6723 25.6507 72.5221 26.375C71.1848 26.1199 70.4475 25.2949 70.3101 23.9C69.3425 23.6555 68.3945 23.7103 67.4661 24.065C67.0177 23.8984 66.8072 23.5684 66.8341 23.075Z" fill="#4B6E3B"/>
<path opacity="0.298" fill-rule="evenodd" clip-rule="evenodd" d="M38.71 23.735C38.4443 24.3551 38.3387 25.0151 38.394 25.715C38.078 25.715 37.762 25.715 37.446 25.715C37.8057 24.9821 38.2272 24.3221 38.71 23.735Z" fill="#567446"/>
<path opacity="0.667" fill-rule="evenodd" clip-rule="evenodd" d="M37.4459 25.715C36.7491 26.3298 36.3276 27.1 36.1819 28.025C35.7272 26.8297 36.1484 26.0595 37.4459 25.715Z" fill="#5A764B"/>
<path opacity="0.502" fill-rule="evenodd" clip-rule="evenodd" d="M51.3501 24.725C52.9582 26.371 53.6954 28.4062 53.5621 30.83C53.0132 31.79 52.592 31.625 52.2981 30.335C52.4931 30.3716 52.6511 30.4815 52.7721 30.665C52.9829 29.7849 52.9829 28.9051 52.7721 28.025C52.3758 26.8687 51.9018 25.7688 51.3501 24.725Z" fill="#577D24"/>
<path opacity="0.208" fill-rule="evenodd" clip-rule="evenodd" d="M36.1819 28.025C36.8616 28.5695 37.4936 29.1744 38.0779 29.84C37.6194 30.6551 37.7249 31.3702 38.3939 31.985C38.0791 32.0134 37.8159 31.9032 37.6039 31.655C37.3691 31.0145 37.4219 30.4096 37.7619 29.84C36.9469 29.4849 36.4201 28.88 36.1819 28.025Z" fill="#577538"/>
<path opacity="0.129" fill-rule="evenodd" clip-rule="evenodd" d="M137.934 36.275C138.82 35.8995 139.768 35.8444 140.778 36.11C141.27 36.9353 141.059 37.4303 140.146 37.595C140.289 37.2789 140.5 37.0036 140.778 36.77C139.9 36.3106 138.952 36.1456 137.934 36.275Z" fill="#7E474C"/>
<path fill-rule="evenodd" clip-rule="evenodd" d="M137.934 36.275C138.952 36.1456 139.9 36.3106 140.778 36.77C140.499 37.0036 140.289 37.2789 140.146 37.595C139.271 38.1187 138.428 38.7236 137.618 39.41C139.016 39.671 140.386 39.5608 141.726 39.08C142.078 38.3768 142.499 37.7715 142.99 37.265C143.201 37.265 143.306 37.3749 143.306 37.595C143.542 38.1996 143.858 38.7497 144.254 39.245C144.42 40.3366 143.999 41.0514 142.99 41.39C140.251 41.4999 137.513 41.6101 134.774 41.72C123.708 50.9092 113.175 60.7541 103.174 71.255C98.7906 75.6674 94.6826 80.3422 90.8499 85.28C92.2324 85.1675 93.6019 84.8926 94.9579 84.455C96.8836 84.1464 98.6743 83.4864 100.33 82.475C100.435 82.9149 100.541 82.9149 100.646 82.475C102.127 82.2978 103.601 82.0777 105.07 81.815C105.881 81.7421 106.619 81.522 107.282 81.155C108.426 81.2137 109.48 80.9936 110.442 80.495C111 80.1779 111.632 80.0676 112.338 80.165C114.487 79.8327 116.594 79.5027 118.658 79.175C118.763 79.175 118.869 79.175 118.974 79.175C122.92 78.981 126.818 79.311 130.666 80.165C131.59 80.6877 132.433 81.3477 133.194 82.145C133.603 83.9468 133.235 85.5968 132.088 87.095C131.128 88.0418 130.233 89.0318 129.402 90.065C128.847 89.7178 128.636 89.1677 128.77 88.415C128.716 88.0876 128.821 87.8679 129.086 87.755C129.583 86.7881 129.373 85.9631 128.454 85.28C121.065 82.8466 113.587 82.5166 106.018 84.29C99.2672 86.3103 92.4732 88.1253 85.6359 89.735C85.0396 89.8898 84.5656 90.2198 84.2139 90.725C84.0113 90.2323 83.6953 89.9023 83.2659 89.735C82.5207 89.8165 81.8887 89.5967 81.3699 89.075C80.9379 88.246 81.0431 87.4761 81.6859 86.765C82.1387 86.3251 82.5602 85.8301 82.9499 85.28C83.8893 85.2453 84.8373 85.3005 85.7939 85.445C86.4701 85.4265 86.9966 85.2064 87.3739 84.785C89.4784 82.0368 91.5852 79.2869 93.6939 76.535C94.4567 76.0694 94.9835 75.4094 95.2739 74.555C97.0444 72.5403 98.8876 70.5603 100.804 68.615C100.987 68.1438 100.934 67.7035 100.646 67.295C100.961 67.2666 101.224 67.3768 101.436 67.625C101.85 66.8861 102.429 66.336 103.174 65.975C103.595 65.7549 103.911 65.4249 104.122 64.985C104.227 64.655 104.438 64.4349 104.754 64.325C105.175 64.1049 105.491 63.7749 105.702 63.335C105.987 62.7275 106.408 62.2876 106.966 62.015C108.21 61.2672 109.263 60.2772 110.126 59.045C111.476 58.1867 112.634 57.0868 113.602 55.745C113.843 55.1635 114.264 54.8335 114.866 54.755C115.393 54.425 115.814 53.9851 116.13 53.435C116.841 53.2436 117.367 52.8037 117.71 52.115C118.528 51.8117 119.16 51.2616 119.606 50.465C120.424 50.1617 121.056 49.6116 121.502 48.815C122.32 48.5117 122.952 47.9616 123.398 47.165C124.109 46.9736 124.635 46.5337 124.978 45.845C125.912 45.3097 126.754 44.6497 127.506 43.865C128.423 43.1601 129.371 42.4453 130.35 41.72C121.631 40.7422 113.204 41.9523 105.07 45.35C102.136 46.6023 99.6081 48.4173 97.4859 50.795C96.9155 51.4382 96.5995 52.2081 96.5379 53.105C96.7502 54.099 96.961 55.089 97.1699 56.075C96.6431 56.075 96.1166 56.075 95.5899 56.075C94.8207 55.6556 94.3467 54.9956 94.1679 54.095C93.9413 52.5374 93.9941 50.9976 94.3259 49.475C94.6106 49.2143 94.8214 48.8843 94.9579 48.485C94.9035 48.1576 95.0091 47.9379 95.2739 47.825C96.1166 47.165 96.8539 46.3951 97.4859 45.515C98.2294 45.2378 98.8614 44.7976 99.3819 44.195C99.4899 43.9185 99.7004 43.8082 100.014 43.865C101.039 43.5472 101.987 43.1073 102.858 42.545C103.195 42.2368 103.617 42.1266 104.122 42.215C105.353 42.0318 106.512 41.7018 107.598 41.225C109.099 40.7198 110.679 40.4997 112.338 40.565C114.81 40.297 117.233 39.967 119.606 39.575C124.185 39.2463 128.819 39.1364 133.51 39.245C134.221 39.0536 134.747 38.6137 135.09 37.925C135.813 36.9495 136.761 36.3994 137.934 36.275Z" fill="#F90F04"/>
<path opacity="0.351" fill-rule="evenodd" clip-rule="evenodd" d="M57.0379 36.605C56.9754 37.2898 56.9226 37.9498 56.8799 38.585C57.4955 38.786 58.075 39.0061 58.6179 39.245C57.8437 39.3117 57.1065 39.2018 56.4059 38.915C56.2448 37.962 56.4552 37.1921 57.0379 36.605Z" fill="#51551E"/>
<path opacity="0.525" fill-rule="evenodd" clip-rule="evenodd" d="M50.0859 31.655C50.9047 31.9038 51.4839 32.4539 51.8239 33.305C52.3539 35.1362 52.6171 37.0059 52.6139 38.915C52.4032 38.915 52.2979 39.0249 52.2979 39.245C51.6928 39.3387 51.1663 39.2288 50.7179 38.915C51.1392 38.915 51.5607 38.915 51.9819 38.915C52.3264 36.1697 51.6944 33.7498 50.0859 31.655Z" fill="#737E25"/>
<path fill-rule="evenodd" clip-rule="evenodd" d="M142.99 37.265C142.499 37.7716 142.078 38.3768 141.726 39.08C140.386 39.5608 139.017 39.671 137.618 39.41C138.428 38.7236 139.271 38.1187 140.146 37.595C140.704 37.9121 141.336 38.0224 142.042 37.925C141.959 37.4373 142.064 36.9974 142.358 36.605C142.681 36.7222 142.892 36.9423 142.99 37.265Z" fill="#9C4341"/>
<path opacity="0.776" fill-rule="evenodd" clip-rule="evenodd" d="M135.09 37.925C134.747 38.6137 134.221 39.0536 133.51 39.245C133.853 38.5563 134.379 38.1164 135.09 37.925Z" fill="#A03531"/>
<path fill-rule="evenodd" clip-rule="evenodd" d="M50.7179 38.915C51.1664 39.2288 51.6928 39.3387 52.2979 39.245C54.4565 38.7668 56.1945 39.4268 57.5119 41.225C58.5371 42.9509 59.2218 44.821 59.566 46.835C59.2876 47.3204 58.8663 47.5953 58.3019 47.66C58.7838 47.993 59.3106 48.158 59.882 48.155C59.9666 52.017 59.8086 55.8668 59.4079 59.705C58.5421 59.9631 57.6466 60.1281 56.7219 60.2C57.5164 60.6132 58.3588 60.7782 59.2499 60.695C58.4754 65.7671 57.633 70.8273 56.7219 75.875C56.1851 75.8222 55.6583 75.877 55.1419 76.04C55.7063 76.1047 56.1276 76.3796 56.4059 76.865C55.8267 79.175 55.2472 81.485 54.6679 83.795C54.2271 85.3351 53.6479 86.765 52.9299 88.085C49.313 76.7135 46.8902 65.0536 45.6619 53.105C47.527 53.2825 49.3174 53.0077 51.0339 52.28C49.5785 51.8969 48.1037 51.5669 46.6099 51.29C46.141 51.0715 45.7198 50.7963 45.3459 50.465C45.3459 48.485 45.3459 46.505 45.3459 44.525C45.0299 44.525 44.7139 44.525 44.3979 44.525C44.3979 44.4151 44.3979 44.3049 44.3979 44.195C44.7692 44.2673 45.0852 44.1574 45.3459 43.865C46.3009 41.222 48.0917 39.572 50.7179 38.915Z" fill="#FC7801"/>
<path opacity="0.165" fill-rule="evenodd" clip-rule="evenodd" d="M58.6179 39.245C59.8554 39.0671 60.8034 39.507 61.4619 40.565C60.536 40.0255 59.588 39.5856 58.6179 39.245Z" fill="#74632A"/>
<path fill-rule="evenodd" clip-rule="evenodd" d="M144.254 39.245C145.08 39.5585 145.712 40.1086 146.15 40.895C146.709 42.3711 146.182 43.3063 144.57 43.7C141.937 43.8099 139.303 43.9201 136.67 44.03C125.465 53.4789 114.721 63.4337 104.438 73.895C104.123 73.9234 103.86 73.8132 103.648 73.565C103.589 72.7281 103.431 71.9582 103.174 71.255C113.175 60.7541 123.708 50.9092 134.774 41.72C137.513 41.6101 140.251 41.4999 142.99 41.39C143.999 41.0514 144.42 40.3366 144.254 39.245Z" fill="#9D3E3C"/>
<path opacity="0.027" fill-rule="evenodd" clip-rule="evenodd" d="M143.306 37.595C144.14 38.3956 145.035 39.1655 145.992 39.905C146.145 40.2178 146.197 40.5478 146.15 40.895C145.712 40.1086 145.08 39.5585 144.254 39.245C143.858 38.7497 143.542 38.1996 143.306 37.595Z" fill="#755559"/>
<path opacity="0.231" fill-rule="evenodd" clip-rule="evenodd" d="M119.606 39.575C117.233 39.9671 114.81 40.2971 112.338 40.565C112.47 40.3268 112.68 40.1618 112.97 40.07C115.171 39.741 117.383 39.576 119.606 39.575Z" fill="#594B56"/>
<path opacity="0.231" fill-rule="evenodd" clip-rule="evenodd" d="M107.598 41.225C106.512 41.7019 105.354 42.0319 104.122 42.215C105.153 41.5326 106.312 41.2026 107.598 41.225Z" fill="#75454C"/>
<path opacity="0.553" fill-rule="evenodd" clip-rule="evenodd" d="M61.4619 40.565C62.2658 40.9636 62.6874 41.6236 62.7259 42.545C62.183 41.9764 61.7618 41.3164 61.4619 40.565Z" fill="#926C22"/>
<path fill-rule="evenodd" clip-rule="evenodd" d="M127.506 43.865C127.541 43.6614 127.646 43.4964 127.822 43.37C127.413 43.2083 126.992 43.1532 126.558 43.205C123.527 43.1615 120.577 43.4915 117.71 44.195C111.532 45.222 105.844 47.532 100.646 51.125C100.119 51.455 99.6981 51.8949 99.3821 52.445C98.7501 51.8949 98.1181 51.3451 97.4861 50.795C99.6083 48.4174 102.136 46.6024 105.07 45.35C113.204 41.9523 121.631 40.7422 130.35 41.72C129.371 42.4454 128.423 43.1601 127.506 43.865Z" fill="#A23E3B"/>
<path opacity="0.416" fill-rule="evenodd" clip-rule="evenodd" d="M102.858 42.545C101.987 43.1073 101.039 43.5472 100.014 43.865C100.772 43.0486 101.72 42.6083 102.858 42.545Z" fill="#902E33"/>
<path opacity="0.169" fill-rule="evenodd" clip-rule="evenodd" d="M126.558 43.205C123.678 43.7676 120.729 44.0976 117.71 44.195C120.577 43.4914 123.527 43.1614 126.558 43.205Z" fill="#6B474D"/>
<path fill-rule="evenodd" clip-rule="evenodd" d="M44.398 44.525C44.714 44.525 45.03 44.525 45.346 44.525C45.346 46.505 45.346 48.485 45.346 50.465C45.2493 51.417 45.3545 52.2972 45.662 53.105C46.8903 65.0536 49.3131 76.7135 52.93 88.085C53.8006 89.2532 54.801 89.3631 55.932 88.415C57.4178 85.3952 58.4714 82.2051 59.092 78.845C61.1207 69.6829 62.7007 60.4429 63.832 51.125C64.0244 48.9176 63.972 46.7175 63.674 44.525C64.622 44.525 65.57 44.525 66.518 44.525C69.8888 44.525 73.2592 44.525 76.63 44.525C76.5251 55.5813 76.6306 66.5815 76.946 77.525C76.7219 87.6052 72.2979 94.92 63.674 99.47C53.1114 103.494 44.1054 101.129 36.656 92.375C34.1327 88.9833 32.658 85.1331 32.232 80.825C32.074 70.7055 32.0212 60.5854 32.074 50.465C32.3369 58.2187 32.4949 66.0288 32.548 73.895C32.706 64.1055 32.7588 54.3158 32.706 44.525C36.6032 44.525 40.5008 44.525 44.398 44.525Z" fill="#07386A"/>
<path opacity="0.169" fill-rule="evenodd" clip-rule="evenodd" d="M99.3821 44.195C98.8616 44.7976 98.2296 45.2378 97.4861 45.515C97.8975 44.7487 98.5295 44.3089 99.3821 44.195Z" fill="#973235"/>
<path opacity="0.314" fill-rule="evenodd" clip-rule="evenodd" d="M127.506 43.865C126.755 44.6497 125.912 45.3097 124.978 45.845C125.551 44.8065 126.394 44.1465 127.506 43.865Z" fill="#744849"/>
<path opacity="0.6" fill-rule="evenodd" clip-rule="evenodd" d="M97.4859 45.515C96.8539 46.3951 96.1167 47.165 95.2739 47.825C95.6952 46.7251 96.4327 45.9549 97.4859 45.515Z" fill="#832D3B"/>
<path opacity="0.765" fill-rule="evenodd" clip-rule="evenodd" d="M124.978 45.845C124.635 46.5337 124.109 46.9736 123.398 47.165C123.741 46.4763 124.267 46.0364 124.978 45.845Z" fill="#8E3D41"/>
<path fill-rule="evenodd" clip-rule="evenodd" d="M8.37403 63.995C5.95471 58.482 7.00806 53.862 11.534 50.135C11.4927 49.8459 11.598 49.6258 11.85 49.475C17.6304 46.9812 23.213 47.4211 28.598 50.795C28.9554 51.3144 29.008 51.8645 28.756 52.445C27.7849 54.1422 26.8896 55.9024 26.07 57.725C25.8594 57.8349 25.6487 57.9451 25.438 58.055C23.25 56.8901 20.9326 56.1202 18.486 55.745C15.6429 55.9034 14.5896 57.3884 15.326 60.2C18.1535 61.9913 21.1029 63.531 24.174 64.82C31.0525 69.5945 32.0004 75.4246 27.018 82.31C22.5132 85.5605 17.5625 86.5505 12.166 85.28C8.84412 84.5365 6.00011 82.9416 3.63403 80.495C4.90274 78.0609 6.32474 75.7509 7.90003 73.565C10.4707 75.6493 13.3673 76.9693 16.59 77.525C19.8337 77.6095 21.1503 76.0694 20.54 72.905C20.1714 72.5199 19.8027 72.1351 19.434 71.75C16.6954 70.3201 13.9567 68.8899 11.218 67.46C9.85977 66.6485 8.91177 65.4935 8.37403 63.995Z" fill="#08386A"/>
<path opacity="0.839" fill-rule="evenodd" clip-rule="evenodd" d="M123.398 47.165C122.952 47.9616 122.32 48.5117 121.502 48.815C121.948 48.0184 122.58 47.4683 123.398 47.165Z" fill="#983D35"/>
<path fill-rule="evenodd" clip-rule="evenodd" d="M94.3261 49.475C93.9943 50.9976 93.9415 52.5374 94.1681 54.095C94.347 54.9956 94.821 55.6556 95.5901 56.075C96.219 56.5482 96.7457 57.1534 97.1701 57.89C97.6865 58.053 98.2132 58.1078 98.7501 58.055C98.1191 56.042 98.3298 54.1719 99.3821 52.445C99.6981 51.8949 100.119 51.455 100.646 51.125C100.533 51.7424 100.217 52.2374 99.6981 52.61C100.129 53.2518 100.392 53.9669 100.488 54.755C100.836 57.458 100.626 60.098 99.8561 62.675C99.1366 63.6317 98.3466 64.5118 97.4861 65.315C97.5983 65.6522 97.8091 65.8724 98.1181 65.975C98.5226 66.4472 99.0494 66.6673 99.6981 66.635C99.8476 67.099 100.164 67.3191 100.646 67.295C100.934 67.7035 100.987 68.1437 100.804 68.615C98.8879 70.5603 97.0447 72.5403 95.2741 74.555C95.2245 72.3569 94.1713 70.9817 92.1141 70.43C90.6431 70.2653 89.1687 70.2102 87.6901 70.265C87.6377 72.9073 87.6901 75.5473 87.8481 78.185C89.3488 77.9193 90.876 77.7543 92.4301 77.69C92.8109 77.2359 93.2321 76.8511 93.6941 76.535C91.5855 79.2868 89.4787 82.0367 87.3741 84.785C85.3729 84.785 83.3713 84.785 81.3701 84.785C80.7381 84.785 80.1061 84.785 79.4741 84.785C79.4741 72.7951 79.4741 60.8049 79.4741 48.815C83.6886 48.7599 87.9022 48.815 92.1141 48.98C92.9155 49.0414 93.6527 49.2064 94.3261 49.475ZM87.6901 55.415C91.7738 55.1629 93.2486 57.033 92.1141 61.025C90.8498 62.1556 89.3753 62.5955 87.6901 62.345C87.6901 60.035 87.6901 57.725 87.6901 55.415Z" fill="#0C3769"/>
<path opacity="0.891" fill-rule="evenodd" clip-rule="evenodd" d="M44.398 44.195C44.398 44.3049 44.398 44.4151 44.398 44.525C40.5007 44.525 36.6032 44.525 32.706 44.525C32.7587 54.3158 32.706 64.1056 32.548 73.895C32.4949 66.0288 32.3369 58.2187 32.074 50.465C32.074 48.3751 32.074 46.2849 32.074 44.195C36.182 44.195 40.29 44.195 44.398 44.195Z" fill="#264E75"/>
<path opacity="0.867" fill-rule="evenodd" clip-rule="evenodd" d="M121.502 48.815C121.056 49.6116 120.424 50.1617 119.606 50.465C120.052 49.6684 120.684 49.1183 121.502 48.815Z" fill="#A23631"/>
<path fill-rule="evenodd" clip-rule="evenodd" d="M45.346 50.465C45.7198 50.7963 46.1411 51.0715 46.61 51.29C48.1037 51.5669 49.5785 51.8969 51.034 52.28C49.3175 53.0076 47.527 53.2825 45.662 53.105C45.3545 52.2972 45.2493 51.417 45.346 50.465Z" fill="#D65303"/>
<path fill-rule="evenodd" clip-rule="evenodd" d="M97.4861 50.795C98.1181 51.3451 98.7501 51.8949 99.3821 52.445C98.3298 54.1719 98.119 56.042 98.7501 58.055C98.2132 58.1078 97.6864 58.053 97.1701 57.89C96.7457 57.1534 96.2189 56.5482 95.5901 56.075C96.1169 56.075 96.6433 56.075 97.1701 56.075C96.9612 55.0889 96.7504 54.0989 96.5381 53.105C96.5997 52.208 96.9157 51.4382 97.4861 50.795Z" fill="#6D1119"/>
<path opacity="0.78" fill-rule="evenodd" clip-rule="evenodd" d="M119.606 50.465C119.16 51.2616 118.528 51.8117 117.71 52.115C118.156 51.3184 118.788 50.7683 119.606 50.465Z" fill="#9D352F"/>
<path opacity="0.671" fill-rule="evenodd" clip-rule="evenodd" d="M11.5339 50.135C7.00792 53.862 5.95457 58.482 8.3739 63.995C7.59698 63.4828 7.12298 62.713 6.9519 61.685C5.98342 57.3142 7.08942 53.6294 10.2699 50.63C10.6633 50.369 11.0846 50.204 11.5339 50.135Z" fill="#284F6A"/>
<path opacity="0.725" fill-rule="evenodd" clip-rule="evenodd" d="M117.71 52.115C117.367 52.8037 116.841 53.2436 116.13 53.435C116.473 52.7463 116.999 52.3064 117.71 52.115Z" fill="#923431"/>
<path opacity="0.318" fill-rule="evenodd" clip-rule="evenodd" d="M116.13 53.435C115.814 53.9851 115.393 54.425 114.866 54.755C114.971 53.9851 115.393 53.5449 116.13 53.435Z" fill="#76494B"/>
<path opacity="0.812" fill-rule="evenodd" clip-rule="evenodd" d="M113.602 55.745C112.634 57.0868 111.476 58.1867 110.126 59.045C111.094 57.7032 112.252 56.6033 113.602 55.745Z" fill="#9F362F"/>
<path fill-rule="evenodd" clip-rule="evenodd" d="M52.2981 39.245C52.2981 39.0249 52.4033 38.915 52.6141 38.915C53.2461 38.915 53.8781 38.915 54.5101 38.915C55.1421 38.915 55.7741 38.915 56.4061 38.915C57.1067 39.2018 57.8439 39.3117 58.6181 39.245C59.5882 39.5856 60.5362 40.0255 61.4621 40.565C61.762 41.3164 62.1832 41.9764 62.7261 42.545C63.2586 42.7707 63.5746 43.2106 63.6741 43.865C64.5993 44.1897 65.5473 44.2996 66.5181 44.195C66.5181 44.3049 66.5181 44.4151 66.5181 44.525C65.5701 44.525 64.6221 44.525 63.6741 44.525C63.9721 46.7175 64.0245 48.9176 63.8321 51.125C62.7008 60.4429 61.1208 69.6829 59.0921 78.845C58.4715 82.2051 57.4179 85.3952 55.9321 88.415C54.8011 89.3631 53.8007 89.2532 52.9301 88.085C53.648 86.765 54.2273 85.3351 54.6681 83.795C55.2473 81.485 55.8269 79.175 56.4061 76.865C56.1277 76.3796 55.7065 76.1047 55.1421 76.04C55.6584 75.877 56.1852 75.8222 56.7221 75.875C57.6331 70.8273 58.4756 65.7671 59.2501 60.695C58.359 60.7782 57.5165 60.6132 56.7221 60.2C57.6467 60.1281 58.5423 59.9631 59.4081 59.705C59.8088 55.8668 59.9668 52.017 59.8821 48.155C59.3108 48.158 58.784 47.993 58.3021 47.66C58.8665 47.5953 59.2877 47.3204 59.5661 46.835C59.222 44.821 58.5372 42.9509 57.5121 41.225C56.1947 39.4268 54.4567 38.7668 52.2981 39.245Z" fill="#E26003"/>
<path opacity="0.687" fill-rule="evenodd" clip-rule="evenodd" d="M94.9581 48.485C94.8216 48.8843 94.6108 49.2143 94.3261 49.475C93.6527 49.2064 92.9155 49.0414 92.1141 48.98C87.9022 48.815 83.6886 48.7599 79.4741 48.815C79.4741 60.8049 79.4741 72.7951 79.4741 84.785C80.1061 84.785 80.7381 84.785 81.3701 84.785C81.3701 84.8949 81.3701 85.0051 81.3701 85.115C80.5425 85.2034 79.7525 85.0935 79.0001 84.785C78.7893 72.7951 78.7893 60.8049 79.0001 48.815C84.3209 48.5127 89.6405 48.4028 94.9581 48.485Z" fill="#2F4A6C"/>
<path opacity="0.765" fill-rule="evenodd" clip-rule="evenodd" d="M110.126 59.045C109.263 60.2772 108.21 61.2672 106.966 62.015C107.829 60.7828 108.882 59.7928 110.126 59.045Z" fill="#A52827"/>
<path opacity="0.325" fill-rule="evenodd" clip-rule="evenodd" d="M105.702 63.335C105.491 63.7749 105.175 64.1049 104.754 64.325C104.754 63.665 105.07 63.335 105.702 63.335Z" fill="#7F3838"/>
<path opacity="0.075" fill-rule="evenodd" clip-rule="evenodd" d="M66.5181 44.525C66.5181 44.4151 66.5181 44.3049 66.5181 44.195C69.9941 44.195 73.4701 44.195 76.9461 44.195C76.9461 55.3051 76.9461 66.4149 76.9461 77.525C76.6307 66.5815 76.5252 55.5813 76.6301 44.525C73.2593 44.525 69.8888 44.525 66.5181 44.525Z" fill="#294663"/>
<path opacity="0.369" fill-rule="evenodd" clip-rule="evenodd" d="M104.122 64.985C103.911 65.4249 103.595 65.7549 103.174 65.975C103.174 65.315 103.49 64.985 104.122 64.985Z" fill="#6E3C43"/>
<path opacity="0.271" fill-rule="evenodd" clip-rule="evenodd" d="M98.1179 65.975C98.7667 65.9427 99.2934 66.1628 99.6979 66.635C99.0492 66.6673 98.5224 66.4472 98.1179 65.975Z" fill="#982933"/>
<path opacity="0.039" fill-rule="evenodd" clip-rule="evenodd" d="M99.698 66.635C100.181 66.6109 100.497 66.831 100.646 67.295C100.163 67.3191 99.8475 67.099 99.698 66.635Z" fill="#962534"/>
<path fill-rule="evenodd" clip-rule="evenodd" d="M103.174 71.255C103.431 71.9582 103.589 72.7281 103.648 73.565C103.86 73.8132 104.123 73.9234 104.438 73.895C104.333 74.1151 104.227 74.3349 104.122 74.555C100.641 77.4207 97.586 80.7207 94.9581 84.455C93.6021 84.8926 92.2326 85.1675 90.8501 85.28C94.6829 80.3422 98.7909 75.6674 103.174 71.255Z" fill="#6D121A"/>
<path fill-rule="evenodd" clip-rule="evenodd" d="M104.122 74.555C103.854 76.1152 103.485 77.6553 103.016 79.175C102.583 80.0878 102.004 80.8577 101.278 81.485C100.962 81.5949 100.751 81.815 100.646 82.145C100.646 82.2549 100.646 82.3651 100.646 82.475C100.541 82.475 100.435 82.475 100.33 82.475C98.6745 83.4864 96.8837 84.1464 94.958 84.455C97.5859 80.7207 100.641 77.4207 104.122 74.555Z" fill="#1D3361"/>
<path opacity="0.384" fill-rule="evenodd" clip-rule="evenodd" d="M95.2741 74.555C94.9837 75.4094 94.4569 76.0694 93.6941 76.535C93.9845 75.6806 94.5113 75.0206 95.2741 74.555Z" fill="#6C3446"/>
<path opacity="0.151" fill-rule="evenodd" clip-rule="evenodd" d="M118.974 79.175C122.743 78.679 126.535 78.844 130.35 79.67C130.526 79.7964 130.631 79.9614 130.666 80.165C126.818 79.311 122.921 78.981 118.974 79.175Z" fill="#7C3E43"/>
<path opacity="0.086" fill-rule="evenodd" clip-rule="evenodd" d="M118.658 79.175C116.594 79.5027 114.487 79.8327 112.338 80.165C112.47 79.9267 112.68 79.7617 112.97 79.67C114.852 79.3162 116.748 79.1512 118.658 79.175Z" fill="#7F3F46"/>
<path opacity="0.016" fill-rule="evenodd" clip-rule="evenodd" d="M130.666 80.165C131.97 80.2096 132.813 80.8696 133.194 82.145C132.433 81.3477 131.591 80.6877 130.666 80.165Z" fill="#8D3A42"/>
<path opacity="0.071" fill-rule="evenodd" clip-rule="evenodd" d="M110.442 80.495C109.48 80.9936 108.427 81.2137 107.282 81.155C108.258 80.7309 109.311 80.5112 110.442 80.495Z" fill="#87373A"/>
<path opacity="0.435" fill-rule="evenodd" clip-rule="evenodd" d="M107.282 81.155C106.619 81.522 105.881 81.7421 105.07 81.815C105.682 81.2662 106.42 81.0464 107.282 81.155Z" fill="#763145"/>
<path opacity="0.01" fill-rule="evenodd" clip-rule="evenodd" d="M101.278 81.485C101.278 81.9249 101.067 82.145 100.646 82.145C100.751 81.815 100.962 81.5949 101.278 81.485Z" fill="#D11919"/>
<path fill-rule="evenodd" clip-rule="evenodd" d="M133.194 82.145C135.298 83.0931 135.982 84.7431 135.248 87.095C134.226 89.3462 132.698 91.1061 130.666 92.375C130.35 92.2651 130.139 92.045 130.034 91.715C130.307 90.7837 130.57 89.9039 130.824 89.075C130.467 89.6165 129.993 89.9465 129.402 90.065C130.233 89.0318 131.128 88.0418 132.088 87.095C133.235 85.5968 133.604 83.9468 133.194 82.145Z" fill="#9A3C3B"/>
<path fill-rule="evenodd" clip-rule="evenodd" d="M129.086 87.755C129.086 87.425 129.086 87.095 129.086 86.765C127.847 86.3518 126.583 86.0218 125.294 85.775C122.945 85.2632 120.523 85.0431 118.026 85.115C115.427 85.0497 112.899 85.2698 110.442 85.775C104.102 87.5689 97.6763 89.3288 91.1661 91.055C89.7906 91.1425 88.421 91.3075 87.0581 91.55C86.8824 91.6764 86.7772 91.8414 86.7421 92.045C85.9382 92.9713 85.6222 92.7512 85.7941 91.385C84.9159 91.4579 84.0732 91.348 83.2661 91.055C83.2661 90.6151 83.2661 90.1749 83.2661 89.735C83.6956 89.9023 84.0116 90.2323 84.2141 90.725C84.5658 90.2198 85.0398 89.8898 85.6361 89.735C92.4734 88.1253 99.2674 86.3103 106.018 84.29C113.587 82.5166 121.065 82.8466 128.454 85.28C129.373 85.9631 129.583 86.7881 129.086 87.755Z" fill="#A33B38"/>
<path opacity="0.224" fill-rule="evenodd" clip-rule="evenodd" d="M81.3701 85.115C81.3701 85.0051 81.3701 84.8949 81.3701 84.785C83.3713 84.785 85.3729 84.785 87.3741 84.785C86.9968 85.2064 86.4704 85.4265 85.7941 85.445C84.8376 85.3005 83.8896 85.2454 82.9501 85.28C82.5605 85.8301 82.1389 86.3251 81.6861 86.765C81.7654 86.2139 81.9762 85.7189 82.3181 85.28C82.0185 85.1206 81.7025 85.0658 81.3701 85.115Z" fill="#66495B"/>
<path opacity="0.227" fill-rule="evenodd" clip-rule="evenodd" d="M125.294 85.775C120.343 85.3424 115.392 85.3424 110.442 85.775C112.898 85.2698 115.426 85.0497 118.026 85.115C120.522 85.0431 122.945 85.2632 125.294 85.775Z" fill="#71424A"/>
<path opacity="0.886" fill-rule="evenodd" clip-rule="evenodd" d="M128.77 88.415C128.636 89.1677 128.847 89.7178 129.402 90.065C128.899 90.5161 128.477 90.4062 128.138 89.735C128.294 89.2314 128.505 88.7915 128.77 88.415Z" fill="#AD3529"/>
<path opacity="0.243" fill-rule="evenodd" clip-rule="evenodd" d="M81.3701 89.075C81.889 89.5967 82.521 89.8165 83.2661 89.735C83.2661 90.1749 83.2661 90.6151 83.2661 91.055C82.9805 90.821 82.8752 90.491 82.9501 90.065C82.0701 90.2577 81.5433 89.9277 81.3701 89.075Z" fill="#554457"/>
<path opacity="0.31" fill-rule="evenodd" clip-rule="evenodd" d="M91.1659 91.055C89.7661 91.5652 88.2916 91.8952 86.7419 92.045C86.777 91.8414 86.8822 91.6764 87.0579 91.55C88.4209 91.3074 89.7904 91.1424 91.1659 91.055Z" fill="#674251"/>
<path opacity="0.416" fill-rule="evenodd" clip-rule="evenodd" d="M83.2661 91.055C84.0732 91.348 84.9159 91.4579 85.7941 91.385C85.6222 92.7512 85.9382 92.9713 86.7421 92.045C86.768 92.6232 86.5048 92.9532 85.9521 93.035C85.0382 92.3423 84.1427 91.6823 83.2661 91.055Z" fill="#624658"/>
</svg>
