<svg width="55" height="55" viewBox="0 0 55 55" fill="none" xmlns="http://www.w3.org/2000/svg">
<path d="M51.4707 13.7501C49.7061 14.5522 47.8041 15.0792 45.8332 15.3313C47.8499 14.1167 49.4082 12.1917 50.1416 9.87716C48.2395 11.023 46.1311 11.8251 43.9082 12.2834C42.0978 10.3126 39.5541 9.16675 36.6666 9.16675C31.2811 9.16675 26.8811 13.5667 26.8811 18.998C26.8811 19.7772 26.9728 20.5334 27.1332 21.2438C18.9749 20.8313 11.7103 16.9126 6.87489 10.9772C6.02697 12.4209 5.54572 14.1167 5.54572 15.9042C5.54572 19.3188 7.26447 22.3438 9.9228 24.0626C8.29572 24.0626 6.78322 23.6042 5.45405 22.9167V22.9855C5.45405 27.7522 8.84572 31.7397 13.3374 32.6334C11.8953 33.0281 10.3814 33.083 8.91447 32.7938C9.5369 34.7474 10.7559 36.4569 12.4001 37.6818C14.0444 38.9067 16.0311 39.5856 18.0811 39.623C14.6061 42.374 10.2986 43.861 5.86655 43.8397C5.08739 43.8397 4.30822 43.7938 3.52905 43.7022C7.88322 46.498 13.0624 48.1251 18.6082 48.1251C36.6666 48.1251 46.5895 33.1376 46.5895 20.1438C46.5895 19.7084 46.5895 19.2959 46.5666 18.8605C48.4916 17.4855 50.1416 15.7438 51.4707 13.7501Z" fill="white"/>
</svg>
