<?xml version="1.0" standalone="no"?>
<svg xmlns:xlink="http://www.w3.org/1999/xlink" id="wave" style="transform:rotate(180deg); transition: 0.3s" viewBox="0 0 1440 490" version="1.1" xmlns="http://www.w3.org/2000/svg"><defs><linearGradient id="sw-gradient-0" x1="0" x2="0" y1="1" y2="0"><stop stop-color="rgba(62, 243, 83.587, 1)" offset="0%"/><stop stop-color="rgba(246.39, 255, 11, 1)" offset="100%"/></linearGradient></defs><path style="transform:translate(0, 0px); opacity:1" fill="url(#sw-gradient-0)" d="M0,49L15,40.8C30,33,60,16,90,81.7C120,147,150,294,180,326.7C210,359,240,278,270,220.5C300,163,330,131,360,130.7C390,131,420,163,450,155.2C480,147,510,98,540,73.5C570,49,600,49,630,89.8C660,131,690,212,720,245C750,278,780,261,810,253.2C840,245,870,245,900,261.3C930,278,960,310,990,294C1020,278,1050,212,1080,196C1110,180,1140,212,1170,220.5C1200,229,1230,212,1260,179.7C1290,147,1320,98,1350,106.2C1380,114,1410,180,1440,204.2C1470,229,1500,212,1530,212.3C1560,212,1590,229,1620,261.3C1650,294,1680,343,1710,334.8C1740,327,1770,261,1800,253.2C1830,245,1860,294,1890,310.3C1920,327,1950,310,1980,269.5C2010,229,2040,163,2070,187.8C2100,212,2130,327,2145,383.8L2160,441L2160,490L2145,490C2130,490,2100,490,2070,490C2040,490,2010,490,1980,490C1950,490,1920,490,1890,490C1860,490,1830,490,1800,490C1770,490,1740,490,1710,490C1680,490,1650,490,1620,490C1590,490,1560,490,1530,490C1500,490,1470,490,1440,490C1410,490,1380,490,1350,490C1320,490,1290,490,1260,490C1230,490,1200,490,1170,490C1140,490,1110,490,1080,490C1050,490,1020,490,990,490C960,490,930,490,900,490C870,490,840,490,810,490C780,490,750,490,720,490C690,490,660,490,630,490C600,490,570,490,540,490C510,490,480,490,450,490C420,490,390,490,360,490C330,490,300,490,270,490C240,490,210,490,180,490C150,490,120,490,90,490C60,490,30,490,15,490L0,490Z"/></svg>