<?xml version="1.0" standalone="no"?>
<svg xmlns:xlink="http://www.w3.org/1999/xlink" id="wave" style="transform:rotate(0deg); transition: 0.3s" viewBox="0 0 1440 320" version="1.1" xmlns="http://www.w3.org/2000/svg"><defs><linearGradient id="sw-gradient-0" x1="0" x2="0" y1="1" y2="0"><stop stop-color="rgba(19.525, 255, 79.516, 1)" offset="0%"/><stop stop-color="rgba(157.805, 239.383, 98.067, 1)" offset="100%"/></linearGradient></defs><path style="transform:translate(0, 0px); opacity:1" fill="url(#sw-gradient-0)" d="M0,64L30,69.3C60,75,120,85,180,117.3C240,149,300,203,360,229.3C420,256,480,256,540,229.3C600,203,660,149,720,106.7C780,64,840,32,900,32C960,32,1020,64,1080,106.7C1140,149,1200,203,1260,192C1320,181,1380,107,1440,64C1500,21,1560,11,1620,16C1680,21,1740,43,1800,69.3C1860,96,1920,128,1980,128C2040,128,2100,96,2160,106.7C2220,117,2280,171,2340,197.3C2400,224,2460,224,2520,197.3C2580,171,2640,117,2700,122.7C2760,128,2820,192,2880,218.7C2940,245,3000,235,3060,229.3C3120,224,3180,224,3240,197.3C3300,171,3360,117,3420,106.7C3480,96,3540,128,3600,128C3660,128,3720,96,3780,69.3C3840,43,3900,21,3960,37.3C4020,53,4080,107,4140,154.7C4200,203,4260,245,4290,266.7L4320,288L4320,320L4290,320C4260,320,4200,320,4140,320C4080,320,4020,320,3960,320C3900,320,3840,320,3780,320C3720,320,3660,320,3600,320C3540,320,3480,320,3420,320C3360,320,3300,320,3240,320C3180,320,3120,320,3060,320C3000,320,2940,320,2880,320C2820,320,2760,320,2700,320C2640,320,2580,320,2520,320C2460,320,2400,320,2340,320C2280,320,2220,320,2160,320C2100,320,2040,320,1980,320C1920,320,1860,320,1800,320C1740,320,1680,320,1620,320C1560,320,1500,320,1440,320C1380,320,1320,320,1260,320C1200,320,1140,320,1080,320C1020,320,960,320,900,320C840,320,780,320,720,320C660,320,600,320,540,320C480,320,420,320,360,320C300,320,240,320,180,320C120,320,60,320,30,320L0,320Z"/><defs><linearGradient id="sw-gradient-1" x1="0" x2="0" y1="1" y2="0"><stop stop-color="rgba(106.261, 227.999, 99.84, 1)" offset="0%"/><stop stop-color="rgba(233.874, 253.043, 159.38, 1)" offset="100%"/></linearGradient></defs><path style="transform:translate(0, 50px); opacity:0.9" fill="url(#sw-gradient-1)" d="M0,96L30,117.3C60,139,120,181,180,186.7C240,192,300,160,360,122.7C420,85,480,43,540,53.3C600,64,660,128,720,165.3C780,203,840,213,900,197.3C960,181,1020,139,1080,128C1140,117,1200,139,1260,160C1320,181,1380,203,1440,224C1500,245,1560,267,1620,234.7C1680,203,1740,117,1800,74.7C1860,32,1920,32,1980,48C2040,64,2100,96,2160,101.3C2220,107,2280,85,2340,64C2400,43,2460,21,2520,58.7C2580,96,2640,192,2700,213.3C2760,235,2820,181,2880,138.7C2940,96,3000,64,3060,48C3120,32,3180,32,3240,26.7C3300,21,3360,11,3420,42.7C3480,75,3540,149,3600,197.3C3660,245,3720,267,3780,277.3C3840,288,3900,288,3960,272C4020,256,4080,224,4140,192C4200,160,4260,128,4290,112L4320,96L4320,320L4290,320C4260,320,4200,320,4140,320C4080,320,4020,320,3960,320C3900,320,3840,320,3780,320C3720,320,3660,320,3600,320C3540,320,3480,320,3420,320C3360,320,3300,320,3240,320C3180,320,3120,320,3060,320C3000,320,2940,320,2880,320C2820,320,2760,320,2700,320C2640,320,2580,320,2520,320C2460,320,2400,320,2340,320C2280,320,2220,320,2160,320C2100,320,2040,320,1980,320C1920,320,1860,320,1800,320C1740,320,1680,320,1620,320C1560,320,1500,320,1440,320C1380,320,1320,320,1260,320C1200,320,1140,320,1080,320C1020,320,960,320,900,320C840,320,780,320,720,320C660,320,600,320,540,320C480,320,420,320,360,320C300,320,240,320,180,320C120,320,60,320,30,320L0,320Z"/><defs><linearGradient id="sw-gradient-2" x1="0" x2="0" y1="1" y2="0"><stop stop-color="rgba(190.318, 255, 172.129, 1)" offset="0%"/><stop stop-color="rgba(48.996, 182.463, 60.393, 1)" offset="100%"/></linearGradient></defs><path style="transform:translate(0, 100px); opacity:0.8" fill="url(#sw-gradient-2)" d="M0,0L30,0C60,0,120,0,180,48C240,96,300,192,360,202.7C420,213,480,139,540,90.7C600,43,660,21,720,53.3C780,85,840,171,900,181.3C960,192,1020,128,1080,128C1140,128,1200,192,1260,192C1320,192,1380,128,1440,112C1500,96,1560,128,1620,144C1680,160,1740,160,1800,160C1860,160,1920,160,1980,165.3C2040,171,2100,181,2160,154.7C2220,128,2280,64,2340,32C2400,0,2460,0,2520,37.3C2580,75,2640,149,2700,181.3C2760,213,2820,203,2880,213.3C2940,224,3000,256,3060,272C3120,288,3180,288,3240,272C3300,256,3360,224,3420,186.7C3480,149,3540,107,3600,85.3C3660,64,3720,64,3780,58.7C3840,53,3900,43,3960,42.7C4020,43,4080,53,4140,80C4200,107,4260,149,4290,170.7L4320,192L4320,320L4290,320C4260,320,4200,320,4140,320C4080,320,4020,320,3960,320C3900,320,3840,320,3780,320C3720,320,3660,320,3600,320C3540,320,3480,320,3420,320C3360,320,3300,320,3240,320C3180,320,3120,320,3060,320C3000,320,2940,320,2880,320C2820,320,2760,320,2700,320C2640,320,2580,320,2520,320C2460,320,2400,320,2340,320C2280,320,2220,320,2160,320C2100,320,2040,320,1980,320C1920,320,1860,320,1800,320C1740,320,1680,320,1620,320C1560,320,1500,320,1440,320C1380,320,1320,320,1260,320C1200,320,1140,320,1080,320C1020,320,960,320,900,320C840,320,780,320,720,320C660,320,600,320,540,320C480,320,420,320,360,320C300,320,240,320,180,320C120,320,60,320,30,320L0,320Z"/><defs><linearGradient id="sw-gradient-3" x1="0" x2="0" y1="1" y2="0"><stop stop-color="rgba(101.228, 200.677, 67.483, 1)" offset="0%"/><stop stop-color="rgba(194.819, 225.722, 0, 1)" offset="100%"/></linearGradient></defs><path style="transform:translate(0, 150px); opacity:0.7" fill="url(#sw-gradient-3)" d="M0,64L30,69.3C60,75,120,85,180,122.7C240,160,300,224,360,256C420,288,480,288,540,256C600,224,660,160,720,122.7C780,85,840,75,900,80C960,85,1020,107,1080,106.7C1140,107,1200,85,1260,80C1320,75,1380,85,1440,96C1500,107,1560,117,1620,144C1680,171,1740,213,1800,218.7C1860,224,1920,192,1980,160C2040,128,2100,96,2160,74.7C2220,53,2280,43,2340,64C2400,85,2460,139,2520,181.3C2580,224,2640,256,2700,234.7C2760,213,2820,139,2880,133.3C2940,128,3000,192,3060,181.3C3120,171,3180,85,3240,90.7C3300,96,3360,192,3420,208C3480,224,3540,160,3600,149.3C3660,139,3720,181,3780,213.3C3840,245,3900,267,3960,272C4020,277,4080,267,4140,218.7C4200,171,4260,85,4290,42.7L4320,0L4320,320L4290,320C4260,320,4200,320,4140,320C4080,320,4020,320,3960,320C3900,320,3840,320,3780,320C3720,320,3660,320,3600,320C3540,320,3480,320,3420,320C3360,320,3300,320,3240,320C3180,320,3120,320,3060,320C3000,320,2940,320,2880,320C2820,320,2760,320,2700,320C2640,320,2580,320,2520,320C2460,320,2400,320,2340,320C2280,320,2220,320,2160,320C2100,320,2040,320,1980,320C1920,320,1860,320,1800,320C1740,320,1680,320,1620,320C1560,320,1500,320,1440,320C1380,320,1320,320,1260,320C1200,320,1140,320,1080,320C1020,320,960,320,900,320C840,320,780,320,720,320C660,320,600,320,540,320C480,320,420,320,360,320C300,320,240,320,180,320C120,320,60,320,30,320L0,320Z"/></svg>