<?xml version="1.0" standalone="no"?>
<svg xmlns:xlink="http://www.w3.org/1999/xlink" id="wave" style="transform:rotate(0deg); transition: 0.3s" viewBox="0 0 1440 430" version="1.1" xmlns="http://www.w3.org/2000/svg"><defs><linearGradient id="sw-gradient-0" x1="0" x2="0" y1="1" y2="0"><stop stop-color="rgba(19.525, 255, 79.516, 1)" offset="0%"/><stop stop-color="rgba(157.805, 239.383, 98.067, 1)" offset="100%"/></linearGradient></defs><path style="transform:translate(0, 0px); opacity:1" fill="url(#sw-gradient-0)" d="M0,86L30,93.2C60,100,120,115,180,157.7C240,201,300,272,360,308.2C420,344,480,344,540,308.2C600,272,660,201,720,143.3C780,86,840,43,900,43C960,43,1020,86,1080,143.3C1140,201,1200,272,1260,258C1320,244,1380,143,1440,86C1500,29,1560,14,1620,21.5C1680,29,1740,57,1800,93.2C1860,129,1920,172,1980,172C2040,172,2100,129,2160,143.3C2220,158,2280,229,2340,265.2C2400,301,2460,301,2520,265.2C2580,229,2640,158,2700,164.8C2760,172,2820,258,2880,293.8C2940,330,3000,315,3060,308.2C3120,301,3180,301,3240,265.2C3300,229,3360,158,3420,143.3C3480,129,3540,172,3600,172C3660,172,3720,129,3780,93.2C3840,57,3900,29,3960,50.2C4020,72,4080,143,4140,207.8C4200,272,4260,330,4290,358.3L4320,387L4320,430L4290,430C4260,430,4200,430,4140,430C4080,430,4020,430,3960,430C3900,430,3840,430,3780,430C3720,430,3660,430,3600,430C3540,430,3480,430,3420,430C3360,430,3300,430,3240,430C3180,430,3120,430,3060,430C3000,430,2940,430,2880,430C2820,430,2760,430,2700,430C2640,430,2580,430,2520,430C2460,430,2400,430,2340,430C2280,430,2220,430,2160,430C2100,430,2040,430,1980,430C1920,430,1860,430,1800,430C1740,430,1680,430,1620,430C1560,430,1500,430,1440,430C1380,430,1320,430,1260,430C1200,430,1140,430,1080,430C1020,430,960,430,900,430C840,430,780,430,720,430C660,430,600,430,540,430C480,430,420,430,360,430C300,430,240,430,180,430C120,430,60,430,30,430L0,430Z"/><defs><linearGradient id="sw-gradient-1" x1="0" x2="0" y1="1" y2="0"><stop stop-color="rgba(106.261, 227.999, 99.84, 1)" offset="0%"/><stop stop-color="rgba(233.874, 253.043, 159.38, 1)" offset="100%"/></linearGradient></defs><path style="transform:translate(0, 50px); opacity:0.9" fill="url(#sw-gradient-1)" d="M0,129L30,157.7C60,186,120,244,180,250.8C240,258,300,215,360,164.8C420,115,480,57,540,71.7C600,86,660,172,720,222.2C780,272,840,287,900,265.2C960,244,1020,186,1080,172C1140,158,1200,186,1260,215C1320,244,1380,272,1440,301C1500,330,1560,358,1620,315.3C1680,272,1740,158,1800,100.3C1860,43,1920,43,1980,64.5C2040,86,2100,129,2160,136.2C2220,143,2280,115,2340,86C2400,57,2460,29,2520,78.8C2580,129,2640,258,2700,286.7C2760,315,2820,244,2880,186.3C2940,129,3000,86,3060,64.5C3120,43,3180,43,3240,35.8C3300,29,3360,14,3420,57.3C3480,100,3540,201,3600,265.2C3660,330,3720,358,3780,372.7C3840,387,3900,387,3960,365.5C4020,344,4080,301,4140,258C4200,215,4260,172,4290,150.5L4320,129L4320,430L4290,430C4260,430,4200,430,4140,430C4080,430,4020,430,3960,430C3900,430,3840,430,3780,430C3720,430,3660,430,3600,430C3540,430,3480,430,3420,430C3360,430,3300,430,3240,430C3180,430,3120,430,3060,430C3000,430,2940,430,2880,430C2820,430,2760,430,2700,430C2640,430,2580,430,2520,430C2460,430,2400,430,2340,430C2280,430,2220,430,2160,430C2100,430,2040,430,1980,430C1920,430,1860,430,1800,430C1740,430,1680,430,1620,430C1560,430,1500,430,1440,430C1380,430,1320,430,1260,430C1200,430,1140,430,1080,430C1020,430,960,430,900,430C840,430,780,430,720,430C660,430,600,430,540,430C480,430,420,430,360,430C300,430,240,430,180,430C120,430,60,430,30,430L0,430Z"/><defs><linearGradient id="sw-gradient-2" x1="0" x2="0" y1="1" y2="0"><stop stop-color="rgba(190.318, 255, 172.129, 1)" offset="0%"/><stop stop-color="rgba(48.996, 182.463, 60.393, 1)" offset="100%"/></linearGradient></defs><path style="transform:translate(0, 100px); opacity:0.8" fill="url(#sw-gradient-2)" d="M0,0L30,0C60,0,120,0,180,64.5C240,129,300,258,360,272.3C420,287,480,186,540,121.8C600,57,660,29,720,71.7C780,115,840,229,900,243.7C960,258,1020,172,1080,172C1140,172,1200,258,1260,258C1320,258,1380,172,1440,150.5C1500,129,1560,172,1620,193.5C1680,215,1740,215,1800,215C1860,215,1920,215,1980,222.2C2040,229,2100,244,2160,207.8C2220,172,2280,86,2340,43C2400,0,2460,0,2520,50.2C2580,100,2640,201,2700,243.7C2760,287,2820,272,2880,286.7C2940,301,3000,344,3060,365.5C3120,387,3180,387,3240,365.5C3300,344,3360,301,3420,250.8C3480,201,3540,143,3600,114.7C3660,86,3720,86,3780,78.8C3840,72,3900,57,3960,57.3C4020,57,4080,72,4140,107.5C4200,143,4260,201,4290,229.3L4320,258L4320,430L4290,430C4260,430,4200,430,4140,430C4080,430,4020,430,3960,430C3900,430,3840,430,3780,430C3720,430,3660,430,3600,430C3540,430,3480,430,3420,430C3360,430,3300,430,3240,430C3180,430,3120,430,3060,430C3000,430,2940,430,2880,430C2820,430,2760,430,2700,430C2640,430,2580,430,2520,430C2460,430,2400,430,2340,430C2280,430,2220,430,2160,430C2100,430,2040,430,1980,430C1920,430,1860,430,1800,430C1740,430,1680,430,1620,430C1560,430,1500,430,1440,430C1380,430,1320,430,1260,430C1200,430,1140,430,1080,430C1020,430,960,430,900,430C840,430,780,430,720,430C660,430,600,430,540,430C480,430,420,430,360,430C300,430,240,430,180,430C120,430,60,430,30,430L0,430Z"/><defs><linearGradient id="sw-gradient-3" x1="0" x2="0" y1="1" y2="0"><stop stop-color="rgba(101.228, 200.677, 67.483, 1)" offset="0%"/><stop stop-color="rgba(194.819, 225.722, 0, 1)" offset="100%"/></linearGradient></defs><path style="transform:translate(0, 150px); opacity:0.7" fill="url(#sw-gradient-3)" d="M0,86L30,93.2C60,100,120,115,180,164.8C240,215,300,301,360,344C420,387,480,387,540,344C600,301,660,215,720,164.8C780,115,840,100,900,107.5C960,115,1020,143,1080,143.3C1140,143,1200,115,1260,107.5C1320,100,1380,115,1440,129C1500,143,1560,158,1620,193.5C1680,229,1740,287,1800,293.8C1860,301,1920,258,1980,215C2040,172,2100,129,2160,100.3C2220,72,2280,57,2340,86C2400,115,2460,186,2520,243.7C2580,301,2640,344,2700,315.3C2760,287,2820,186,2880,179.2C2940,172,3000,258,3060,243.7C3120,229,3180,115,3240,121.8C3300,129,3360,258,3420,279.5C3480,301,3540,215,3600,200.7C3660,186,3720,244,3780,286.7C3840,330,3900,358,3960,365.5C4020,373,4080,358,4140,293.8C4200,229,4260,115,4290,57.3L4320,0L4320,430L4290,430C4260,430,4200,430,4140,430C4080,430,4020,430,3960,430C3900,430,3840,430,3780,430C3720,430,3660,430,3600,430C3540,430,3480,430,3420,430C3360,430,3300,430,3240,430C3180,430,3120,430,3060,430C3000,430,2940,430,2880,430C2820,430,2760,430,2700,430C2640,430,2580,430,2520,430C2460,430,2400,430,2340,430C2280,430,2220,430,2160,430C2100,430,2040,430,1980,430C1920,430,1860,430,1800,430C1740,430,1680,430,1620,430C1560,430,1500,430,1440,430C1380,430,1320,430,1260,430C1200,430,1140,430,1080,430C1020,430,960,430,900,430C840,430,780,430,720,430C660,430,600,430,540,430C480,430,420,430,360,430C300,430,240,430,180,430C120,430,60,430,30,430L0,430Z"/></svg>