<?xml version="1.0" standalone="no"?>
<svg xmlns:xlink="http://www.w3.org/1999/xlink" id="wave" style="transform:rotate(0deg); transition: 0.3s" viewBox="0 0 1440 240" version="1.1" xmlns="http://www.w3.org/2000/svg"><defs><linearGradient id="sw-gradient-0" x1="0" x2="0" y1="1" y2="0"><stop stop-color="rgba(19.525, 255, 79.516, 1)" offset="0%"/><stop stop-color="rgba(157.805, 239.383, 98.067, 1)" offset="100%"/></linearGradient></defs><path style="transform:translate(0, 0px); opacity:1" fill="url(#sw-gradient-0)" d="M0,48L26.7,52C53.3,56,107,64,160,88C213.3,112,267,152,320,172C373.3,192,427,192,480,172C533.3,152,587,112,640,80C693.3,48,747,24,800,24C853.3,24,907,48,960,80C1013.3,112,1067,152,1120,144C1173.3,136,1227,80,1280,48C1333.3,16,1387,8,1440,12C1493.3,16,1547,32,1600,52C1653.3,72,1707,96,1760,96C1813.3,96,1867,72,1920,80C1973.3,88,2027,128,2080,148C2133.3,168,2187,168,2240,148C2293.3,128,2347,88,2400,92C2453.3,96,2507,144,2560,164C2613.3,184,2667,176,2720,172C2773.3,168,2827,168,2880,148C2933.3,128,2987,88,3040,80C3093.3,72,3147,96,3200,96C3253.3,96,3307,72,3360,52C3413.3,32,3467,16,3520,28C3573.3,40,3627,80,3680,116C3733.3,152,3787,184,3813,200L3840,216L3840,240L3813.3,240C3786.7,240,3733,240,3680,240C3626.7,240,3573,240,3520,240C3466.7,240,3413,240,3360,240C3306.7,240,3253,240,3200,240C3146.7,240,3093,240,3040,240C2986.7,240,2933,240,2880,240C2826.7,240,2773,240,2720,240C2666.7,240,2613,240,2560,240C2506.7,240,2453,240,2400,240C2346.7,240,2293,240,2240,240C2186.7,240,2133,240,2080,240C2026.7,240,1973,240,1920,240C1866.7,240,1813,240,1760,240C1706.7,240,1653,240,1600,240C1546.7,240,1493,240,1440,240C1386.7,240,1333,240,1280,240C1226.7,240,1173,240,1120,240C1066.7,240,1013,240,960,240C906.7,240,853,240,800,240C746.7,240,693,240,640,240C586.7,240,533,240,480,240C426.7,240,373,240,320,240C266.7,240,213,240,160,240C106.7,240,53,240,27,240L0,240Z"/><defs><linearGradient id="sw-gradient-1" x1="0" x2="0" y1="1" y2="0"><stop stop-color="rgba(106.261, 227.999, 99.84, 1)" offset="0%"/><stop stop-color="rgba(233.874, 253.043, 159.38, 1)" offset="100%"/></linearGradient></defs><path style="transform:translate(0, 50px); opacity:0.9" fill="url(#sw-gradient-1)" d="M0,72L26.7,88C53.3,104,107,136,160,140C213.3,144,267,120,320,92C373.3,64,427,32,480,40C533.3,48,587,96,640,124C693.3,152,747,160,800,148C853.3,136,907,104,960,96C1013.3,88,1067,104,1120,120C1173.3,136,1227,152,1280,168C1333.3,184,1387,200,1440,176C1493.3,152,1547,88,1600,56C1653.3,24,1707,24,1760,36C1813.3,48,1867,72,1920,76C1973.3,80,2027,64,2080,48C2133.3,32,2187,16,2240,44C2293.3,72,2347,144,2400,160C2453.3,176,2507,136,2560,104C2613.3,72,2667,48,2720,36C2773.3,24,2827,24,2880,20C2933.3,16,2987,8,3040,32C3093.3,56,3147,112,3200,148C3253.3,184,3307,200,3360,208C3413.3,216,3467,216,3520,204C3573.3,192,3627,168,3680,144C3733.3,120,3787,96,3813,84L3840,72L3840,240L3813.3,240C3786.7,240,3733,240,3680,240C3626.7,240,3573,240,3520,240C3466.7,240,3413,240,3360,240C3306.7,240,3253,240,3200,240C3146.7,240,3093,240,3040,240C2986.7,240,2933,240,2880,240C2826.7,240,2773,240,2720,240C2666.7,240,2613,240,2560,240C2506.7,240,2453,240,2400,240C2346.7,240,2293,240,2240,240C2186.7,240,2133,240,2080,240C2026.7,240,1973,240,1920,240C1866.7,240,1813,240,1760,240C1706.7,240,1653,240,1600,240C1546.7,240,1493,240,1440,240C1386.7,240,1333,240,1280,240C1226.7,240,1173,240,1120,240C1066.7,240,1013,240,960,240C906.7,240,853,240,800,240C746.7,240,693,240,640,240C586.7,240,533,240,480,240C426.7,240,373,240,320,240C266.7,240,213,240,160,240C106.7,240,53,240,27,240L0,240Z"/><defs><linearGradient id="sw-gradient-2" x1="0" x2="0" y1="1" y2="0"><stop stop-color="rgba(190.318, 255, 172.129, 1)" offset="0%"/><stop stop-color="rgba(48.996, 182.463, 60.393, 1)" offset="100%"/></linearGradient></defs><path style="transform:translate(0, 100px); opacity:0.8" fill="url(#sw-gradient-2)" d="M0,0L26.7,0C53.3,0,107,0,160,36C213.3,72,267,144,320,152C373.3,160,427,104,480,68C533.3,32,587,16,640,40C693.3,64,747,128,800,136C853.3,144,907,96,960,96C1013.3,96,1067,144,1120,144C1173.3,144,1227,96,1280,84C1333.3,72,1387,96,1440,108C1493.3,120,1547,120,1600,120C1653.3,120,1707,120,1760,124C1813.3,128,1867,136,1920,116C1973.3,96,2027,48,2080,24C2133.3,0,2187,0,2240,28C2293.3,56,2347,112,2400,136C2453.3,160,2507,152,2560,160C2613.3,168,2667,192,2720,204C2773.3,216,2827,216,2880,204C2933.3,192,2987,168,3040,140C3093.3,112,3147,80,3200,64C3253.3,48,3307,48,3360,44C3413.3,40,3467,32,3520,32C3573.3,32,3627,40,3680,60C3733.3,80,3787,112,3813,128L3840,144L3840,240L3813.3,240C3786.7,240,3733,240,3680,240C3626.7,240,3573,240,3520,240C3466.7,240,3413,240,3360,240C3306.7,240,3253,240,3200,240C3146.7,240,3093,240,3040,240C2986.7,240,2933,240,2880,240C2826.7,240,2773,240,2720,240C2666.7,240,2613,240,2560,240C2506.7,240,2453,240,2400,240C2346.7,240,2293,240,2240,240C2186.7,240,2133,240,2080,240C2026.7,240,1973,240,1920,240C1866.7,240,1813,240,1760,240C1706.7,240,1653,240,1600,240C1546.7,240,1493,240,1440,240C1386.7,240,1333,240,1280,240C1226.7,240,1173,240,1120,240C1066.7,240,1013,240,960,240C906.7,240,853,240,800,240C746.7,240,693,240,640,240C586.7,240,533,240,480,240C426.7,240,373,240,320,240C266.7,240,213,240,160,240C106.7,240,53,240,27,240L0,240Z"/><defs><linearGradient id="sw-gradient-3" x1="0" x2="0" y1="1" y2="0"><stop stop-color="rgba(101.228, 200.677, 67.483, 1)" offset="0%"/><stop stop-color="rgba(194.819, 225.722, 0, 1)" offset="100%"/></linearGradient></defs><path style="transform:translate(0, 150px); opacity:0.7" fill="url(#sw-gradient-3)" d="M0,48L26.7,52C53.3,56,107,64,160,92C213.3,120,267,168,320,192C373.3,216,427,216,480,192C533.3,168,587,120,640,92C693.3,64,747,56,800,60C853.3,64,907,80,960,80C1013.3,80,1067,64,1120,60C1173.3,56,1227,64,1280,72C1333.3,80,1387,88,1440,108C1493.3,128,1547,160,1600,164C1653.3,168,1707,144,1760,120C1813.3,96,1867,72,1920,56C1973.3,40,2027,32,2080,48C2133.3,64,2187,104,2240,136C2293.3,168,2347,192,2400,176C2453.3,160,2507,104,2560,100C2613.3,96,2667,144,2720,136C2773.3,128,2827,64,2880,68C2933.3,72,2987,144,3040,156C3093.3,168,3147,120,3200,112C3253.3,104,3307,136,3360,160C3413.3,184,3467,200,3520,204C3573.3,208,3627,200,3680,164C3733.3,128,3787,64,3813,32L3840,0L3840,240L3813.3,240C3786.7,240,3733,240,3680,240C3626.7,240,3573,240,3520,240C3466.7,240,3413,240,3360,240C3306.7,240,3253,240,3200,240C3146.7,240,3093,240,3040,240C2986.7,240,2933,240,2880,240C2826.7,240,2773,240,2720,240C2666.7,240,2613,240,2560,240C2506.7,240,2453,240,2400,240C2346.7,240,2293,240,2240,240C2186.7,240,2133,240,2080,240C2026.7,240,1973,240,1920,240C1866.7,240,1813,240,1760,240C1706.7,240,1653,240,1600,240C1546.7,240,1493,240,1440,240C1386.7,240,1333,240,1280,240C1226.7,240,1173,240,1120,240C1066.7,240,1013,240,960,240C906.7,240,853,240,800,240C746.7,240,693,240,640,240C586.7,240,533,240,480,240C426.7,240,373,240,320,240C266.7,240,213,240,160,240C106.7,240,53,240,27,240L0,240Z"/></svg>